<svg width="183" height="68" viewBox="0 0 183 68" fill="none" xmlns="http://www.w3.org/2000/svg">
<path d="M5.542 12.996L11.968 32.002L18.428 12.996H23.562L15.062 37H8.908L0.408 12.996H5.542ZM41.1427 12.996V37H36.3487V12.996H41.1427ZM59.0455 12.996L65.4715 32.002L71.9315 12.996H77.0655L68.5655 37H62.4115L53.9115 12.996H59.0455ZM104.472 32.172H94.8502L93.1502 37H88.0842L96.9242 13.268H102.398L111.204 37H106.138L104.472 32.172ZM103.18 28.534L99.6442 18.402L96.1082 28.534H103.18ZM134.838 12.758C137.83 12.758 140.312 13.5287 142.284 15.07C144.256 16.6113 145.559 18.708 146.194 21.36H141.162C140.64 20.068 139.824 19.048 138.714 18.3C137.626 17.552 136.311 17.178 134.77 17.178C133.5 17.178 132.356 17.4953 131.336 18.13C130.316 18.7647 129.522 19.6713 128.956 20.85C128.389 22.0287 128.106 23.4113 128.106 24.998C128.106 26.562 128.389 27.9333 128.956 29.112C129.522 30.2907 130.316 31.1973 131.336 31.832C132.356 32.4667 133.5 32.784 134.77 32.784C136.311 32.784 137.626 32.41 138.714 31.662C139.824 30.914 140.64 29.894 141.162 28.602H146.194C145.559 31.254 144.256 33.3507 142.284 34.892C140.312 36.4333 137.83 37.204 134.838 37.204C132.548 37.204 130.52 36.694 128.752 35.674C127.006 34.6313 125.646 33.1807 124.672 31.322C123.72 29.4633 123.244 27.3553 123.244 24.998C123.244 22.618 123.72 20.4987 124.672 18.64C125.646 16.7813 127.006 15.342 128.752 14.322C130.497 13.2793 132.526 12.758 134.838 12.758ZM164.784 16.804V23.026H173.284V26.698H164.784V33.158H174.304V37H159.99V12.996H174.304V16.804H164.784Z" fill="url(#paint0_linear_64_3)"/>
<path d="M2.296 51.13V61H1.022V51.13H2.296ZM25.7363 61H24.4623L19.3383 53.202V61H18.0643V51.13H19.3383L24.4623 58.942V51.13H25.7363V61ZM47.553 51.13V52.166H44.767V61H43.493V52.166H40.707V51.13H47.553ZM63.8134 52.166V55.54H67.5654V56.52H63.8134V59.964H67.9854V61H62.5394V51.13H67.9854V52.166H63.8134ZM88.5775 61L86.0015 56.968H84.6155V61H83.3415V51.13H86.5895C87.7095 51.13 88.5495 51.4007 89.1095 51.942C89.6695 52.474 89.9495 53.1833 89.9495 54.07C89.9495 54.8727 89.7255 55.5213 89.2775 56.016C88.8295 56.5013 88.1808 56.8047 87.3315 56.926L90.0195 61H88.5775ZM84.6155 56.044H86.4775C87.9241 56.044 88.6475 55.4093 88.6475 54.14C88.6475 52.8707 87.9241 52.236 86.4775 52.236H84.6155V56.044ZM106.498 51.13V61H105.224V51.13H106.498ZM126.788 51.004C127.702 51.004 128.524 51.2187 129.252 51.648C129.989 52.0773 130.568 52.6793 130.988 53.454C131.408 54.2193 131.618 55.0873 131.618 56.058C131.618 57.0287 131.408 57.9013 130.988 58.676C130.568 59.4413 129.989 60.0387 129.252 60.468C128.524 60.8973 127.702 61.112 126.788 61.112C125.873 61.112 125.042 60.8973 124.296 60.468C123.558 60.0387 122.98 59.4413 122.56 58.676C122.14 57.9013 121.93 57.0287 121.93 56.058C121.93 55.0873 122.14 54.2193 122.56 53.454C122.98 52.6793 123.558 52.0773 124.296 51.648C125.042 51.2187 125.873 51.004 126.788 51.004ZM126.788 52.194C126.106 52.194 125.495 52.3527 124.954 52.67C124.422 52.978 124.002 53.426 123.694 54.014C123.395 54.5927 123.246 55.274 123.246 56.058C123.246 56.8327 123.395 57.514 123.694 58.102C124.002 58.69 124.422 59.1427 124.954 59.46C125.495 59.768 126.106 59.922 126.788 59.922C127.46 59.922 128.062 59.7633 128.594 59.446C129.135 59.1287 129.555 58.6807 129.854 58.102C130.162 57.514 130.316 56.8327 130.316 56.058C130.316 55.274 130.162 54.5927 129.854 54.014C129.555 53.426 129.135 52.978 128.594 52.67C128.062 52.3527 127.46 52.194 126.788 52.194ZM152.296 61L149.72 56.968H148.334V61H147.06V51.13H150.308C151.428 51.13 152.268 51.4007 152.828 51.942C153.388 52.474 153.668 53.1833 153.668 54.07C153.668 54.8727 153.444 55.5213 152.996 56.016C152.548 56.5013 151.899 56.8047 151.05 56.926L153.738 61H152.296ZM148.334 56.044H150.196C151.643 56.044 152.366 55.4093 152.366 54.14C152.366 52.8707 151.643 52.236 150.196 52.236H148.334V56.044ZM175.186 58.438C175.186 58.9047 175.074 59.3387 174.85 59.74C174.626 60.1413 174.285 60.468 173.828 60.72C173.371 60.972 172.806 61.098 172.134 61.098C171.481 61.098 170.897 60.9813 170.384 60.748C169.88 60.5053 169.474 60.1787 169.166 59.768C168.867 59.348 168.695 58.872 168.648 58.34H170.006C170.034 58.62 170.127 58.8953 170.286 59.166C170.454 59.4273 170.687 59.6467 170.986 59.824C171.294 59.992 171.663 60.076 172.092 60.076C172.652 60.076 173.081 59.9267 173.38 59.628C173.679 59.3293 173.828 58.9467 173.828 58.48C173.828 58.0787 173.721 57.752 173.506 57.5C173.301 57.248 173.044 57.052 172.736 56.912C172.428 56.7627 172.008 56.604 171.476 56.436C170.851 56.2307 170.347 56.0393 169.964 55.862C169.591 55.6753 169.269 55.4 168.998 55.036C168.737 54.672 168.606 54.1913 168.606 53.594C168.606 53.0807 168.727 52.628 168.97 52.236C169.222 51.844 169.577 51.5407 170.034 51.326C170.501 51.1113 171.047 51.004 171.672 51.004C172.643 51.004 173.413 51.242 173.982 51.718C174.551 52.1847 174.883 52.782 174.976 53.51H173.604C173.529 53.118 173.329 52.7727 173.002 52.474C172.675 52.1753 172.232 52.026 171.672 52.026C171.159 52.026 170.748 52.1613 170.44 52.432C170.132 52.6933 169.978 53.0667 169.978 53.552C169.978 53.9347 170.076 54.2473 170.272 54.49C170.477 54.7233 170.729 54.91 171.028 55.05C171.327 55.1807 171.737 55.33 172.26 55.498C172.895 55.7033 173.403 55.8993 173.786 56.086C174.178 56.2727 174.509 56.5573 174.78 56.94C175.051 57.3133 175.186 57.8127 175.186 58.438Z" fill="url(#paint1_linear_64_3)"/>
<defs>
<linearGradient id="paint0_linear_64_3" x1="176" y1="-3.8434e-05" x2="-1.87763" y2="25.3082" gradientUnits="userSpaceOnUse">
<stop stop-color="#C5A102"/>
<stop offset="1" stop-color="#C56B02" stop-opacity="0.44"/>
</linearGradient>
<linearGradient id="paint1_linear_64_3" x1="183" y1="46" x2="14.1612" y2="103.903" gradientUnits="userSpaceOnUse">
<stop stop-color="#C5A102"/>
<stop offset="1" stop-color="#C56B02" stop-opacity="0.44"/>
</linearGradient>
</defs>
</svg>
