<?xml version="1.0" encoding="utf-8"?>
<!-- Generator: Adobe Illustrator 26.3.1, SVG Export Plug-In . SVG Version: 6.00 Build 0)  -->
<svg version="1.1" id="Layer_1" xmlns="http://www.w3.org/2000/svg" xmlns:xlink="http://www.w3.org/1999/xlink" x="0px" y="0px"
	 viewBox="0 0 303.3 95.8" style="enable-background:new 0 0 303.3 95.8;" xml:space="preserve">
<style type="text/css">
	.st0{fill:url(#SVGID_1_);}
	.st1{fill:url(#SVGID_00000004545838015542326080000013982132946789812412_);}
	.st2{fill:url(#SVGID_00000129917900499383563560000008030517351500090267_);}
	.st3{fill:url(#SVGID_00000177446616138927051570000012719862942428904361_);}
	.st4{fill:url(#SVGID_00000091002173607217545470000008411861944765165972_);}
	.st5{fill:url(#SVGID_00000139256533069182811750000009468920510518904709_);}
	.st6{fill:url(#SVGID_00000172436113918209716600000009755333399225937284_);}
</style>
<g>
	<g>
		<linearGradient id="SVGID_1_" gradientUnits="userSpaceOnUse" x1="328.8083" y1="6.3117" x2="29.3943" y2="53.7262">
			<stop  offset="0" style="stop-color:#C39F05"/>
			<stop  offset="1" style="stop-color:#C36B02;stop-opacity:0.44"/>
		</linearGradient>
		<path class="st0" d="M156.8,58.5c-1.2,0-2.3,0-3.4,0c-4.6,0-4.7,0-5.5-4.4c-2.2-13.3-1.8-26.4,3.2-39c3.5-8.9,9.8-14.3,19.6-15.1
			c11-0.8,19.6,3.4,24.5,13.3c6.8,13.9,7.3,28.6,3.6,43.5c-0.4,1.8-1.5,1.6-2.8,1.6c-5.4,0.1-5.4,0.1-4-5c2.2-7.7,2.2-7.7-5.8-7.7
			c-9.9,0-19.9,0-29.8,0c-1.9,0-2.5,0.3-2.1,2.4C154.9,51.6,156,54.9,156.8,58.5z M173.7,39.8c6,0,12.1,0,18.1,0
			c1.1,0,2.2,0.2,2.1-1.5c-0.5-7.9-1.4-15.7-5.3-22.7c-3.5-6.3-8.9-9.6-16.2-9.3c-7.6,0.3-12,4.7-14.7,11.3
			c-2.6,6.4-3.2,13.1-3.6,20c-0.1,2.1,0.7,2.4,2.5,2.3C162.2,39.7,168,39.8,173.7,39.8z"/>
		
			<linearGradient id="SVGID_00000109013213890953873890000006468216517136002451_" gradientUnits="userSpaceOnUse" x1="331.595" y1="23.9092" x2="32.181" y2="71.3238">
			<stop  offset="0" style="stop-color:#C39F05"/>
			<stop  offset="1" style="stop-color:#C36B02;stop-opacity:0.44"/>
		</linearGradient>
		<path style="fill:url(#SVGID_00000109013213890953873890000006468216517136002451_);" d="M262.9,31.4c0-8.1,0.1-16.2-0.1-24.2
			c0-2.1,0.6-2.5,2.6-2.5c11.3,0.1,22.6,0.1,33.9,0c2.1,0,2.9,0.4,2.8,2.7c-0.2,4,0,4-4,4c-8.3,0-16.6,0.1-24.9-0.1
			c-2.4,0-2.9,0.7-2.8,2.9c0.2,3.6,0.2,7.2,0,10.8c-0.1,1.9,0.5,2.5,2.4,2.4c8.2-0.1,16.4,0.1,24.6-0.1c3.4-0.1,2.6,1.9,2.7,3.7
			c0.2,2-0.1,3.1-2.7,3.1c-8.2-0.2-16.4,0-24.6-0.1c-1.9,0-2.5,0.5-2.4,2.4c0.1,4.4,0.2,8.8,0,13.1c-0.1,2,0.6,2.4,2.5,2.4
			c9.3-0.1,18.5,0.1,27.8-0.1c3.4-0.1,2.5,1.9,2.6,3.7c0.1,1.9,0.2,3.2-2.6,3.1c-11.7-0.2-23.4-0.2-35.1,0c-2.5,0-2.8-0.8-2.8-3
			C262.9,47.5,262.9,39.5,262.9,31.4z"/>
		
			<linearGradient id="SVGID_00000021840893685505303000000009138263997633354940_" gradientUnits="userSpaceOnUse" x1="324.7915" y1="-19.0536" x2="25.3775" y2="28.3609">
			<stop  offset="0" style="stop-color:#C39F05"/>
			<stop  offset="1" style="stop-color:#C36B02;stop-opacity:0.44"/>
		</linearGradient>
		<path style="fill:url(#SVGID_00000021840893685505303000000009138263997633354940_);" d="M29.2,47.2c2.7-5.7,5.3-11.2,7.9-16.8
			c4.3-9.2,8.6-18.4,13-27.7c0.7-1.5,6.6-2.9,7.7-1.7c0.9,0.8-0.1,1.6-0.4,2.3c-4.2,8.5-8.4,17.1-12.7,25.6
			c-4.7,9.4-9.3,18.8-14,28.2c-0.4,0.8-0.4,2-1.8,2c-1.3,0-1.4-1.2-1.8-2C18.3,39.2,9.5,21.2,0.5,3.4C-0.5,1.2,0,0.9,2.2,0.8
			c3.6-0.3,5.4,0.8,7,4.3C15,18.2,21.2,31.3,27.4,44.4C27.8,45.3,28,46.4,29.2,47.2z"/>
		
			<linearGradient id="SVGID_00000136404758622295184990000014060349607668197000_" gradientUnits="userSpaceOnUse" x1="326.8228" y1="-6.2264" x2="27.4088" y2="41.1882">
			<stop  offset="0" style="stop-color:#C39F05"/>
			<stop  offset="1" style="stop-color:#C36B02;stop-opacity:0.44"/>
		</linearGradient>
		<path style="fill:url(#SVGID_00000136404758622295184990000014060349607668197000_);" d="M112.1,47.6c6-12.7,11.7-24.9,17.4-37.1
			c0.9-1.8,2-3.6,2.5-5.6c1-3.4,3.1-4.5,6.7-4.3c2.9,0.2,2.7,0.9,1.7,3c-5.5,11-11,22.1-16.4,33.1c-3.4,6.8-6.7,13.6-10.1,20.3
			c-0.4,0.8-0.5,2-1.8,1.9c-1.2-0.1-1.3-1.1-1.6-1.8c-8.9-18-17.8-36-26.8-54c-1-1.9-0.7-2.3,1.5-2.5c3.7-0.4,5.6,0.9,7.2,4.4
			c5.9,13.2,12.1,26.2,18.3,39.3C110.9,45.3,111.3,46.2,112.1,47.6z"/>
		
			<linearGradient id="SVGID_00000118379245224535332850000015727687390836290979_" gradientUnits="userSpaceOnUse" x1="330.343" y1="16.003" x2="30.929" y2="63.4175">
			<stop  offset="0" style="stop-color:#C39F05"/>
			<stop  offset="1" style="stop-color:#C36B02;stop-opacity:0.44"/>
		</linearGradient>
		<path style="fill:url(#SVGID_00000118379245224535332850000015727687390836290979_);" d="M242.6,0.8c2.8,0,5.7,0.1,8.5,0
			c2.9-0.2,2.1,1.8,2.2,3.3c0.1,1.6,0.2,3-2.3,2.9c-6-0.1-12.1-0.2-18.1,0.6C221.4,9,216.7,13.7,215.3,25c-0.5,4.5-0.2,8.9,0.7,13.3
			c1.4,6.8,5.5,11,12.2,12.5c7.3,1.7,14.7,1.8,22.1,1.6c2.5-0.1,3.1,0.7,3,3.1c0,2.2-0.5,3-2.9,2.9c-7.2-0.2-14.4,0.1-21.6-1.2
			c-12.3-2.2-17.9-7.5-19.9-19.8c-1-6.2-1-12.4,0.3-18.6c2-9.5,8.2-14.8,17.6-16.7C232.1,1.3,237.3,1.1,242.6,0.8z"/>
		
			<linearGradient id="SVGID_00000138560571533513096040000011848790116299126669_" gradientUnits="userSpaceOnUse" x1="326.3932" y1="-8.9395" x2="26.9791" y2="38.475">
			<stop  offset="0" style="stop-color:#C39F05"/>
			<stop  offset="1" style="stop-color:#C36B02;stop-opacity:0.44"/>
		</linearGradient>
		<path style="fill:url(#SVGID_00000138560571533513096040000011848790116299126669_);" d="M74.5,31.6c0,8.2-0.1,16.3,0,24.5
			c0,1.9-0.5,2.4-2.4,2.4c-5.2-0.1-5.2,0-5.2-5.1c0-15.3,0.1-30.5-0.1-45.8c0-2.4,0.6-3.4,3-3c0.5,0.1,1,0.1,1.5,0
			c2.5-0.4,3.3,0.4,3.2,3.1C74.4,15.7,74.5,23.7,74.5,31.6z"/>
	</g>
	<g>
		
			<linearGradient id="SVGID_00000180363136002496482110000014132281692984441505_" gradientUnits="userSpaceOnUse" x1="304.5312" y1="61.0003" x2="11.9772" y2="-39.3306" gradientTransform="matrix(1 0 0 -1 0 95.1683)">
			<stop  offset="0" style="stop-color:#C39F05"/>
			<stop  offset="1" style="stop-color:#C36B02;stop-opacity:0.44"/>
		</linearGradient>
		<path style="fill:url(#SVGID_00000180363136002496482110000014132281692984441505_);" d="M3.6,78.5v17.1H1.3V78.5H3.6z M44.2,95.6
			H42L33.1,82v13.5h-2.2V78.5h2.2L42,92V78.5h2.2V95.6z M82,78.5v1.8h-4.8v15.3h-2.2V80.2h-4.8v-1.8H82z M110.2,80.2v5.8h6.5v1.7
			h-6.5v6h7.2v1.8h-9.4V78.5h9.4v1.8H110.2z M153.1,95.6l-4.5-7h-2.4v7H144V78.5h5.6c1.9,0,3.4,0.5,4.4,1.4c1,0.9,1.5,2.2,1.5,3.7
			c0,1.4-0.4,2.5-1.2,3.4c-0.8,0.8-1.9,1.4-3.4,1.6l4.7,7.1H153.1z M146.2,87h3.2c2.5,0,3.8-1.1,3.8-3.3s-1.3-3.3-3.8-3.3h-3.2V87z
			 M184.1,78.5v17.1h-2.2V78.5H184.1z M219.3,78.2c1.6,0,3,0.4,4.3,1.1c1.3,0.7,2.3,1.8,3,3.1c0.7,1.3,1.1,2.8,1.1,4.5
			c0,1.7-0.4,3.2-1.1,4.5c-0.7,1.3-1.7,2.4-3,3.1c-1.3,0.7-2.7,1.1-4.3,1.1c-1.6,0-3-0.4-4.3-1.1c-1.3-0.7-2.3-1.8-3-3.1
			c-0.7-1.3-1.1-2.9-1.1-4.5c0-1.7,0.4-3.2,1.1-4.5c0.7-1.3,1.7-2.4,3-3.1C216.2,78.6,217.7,78.2,219.3,78.2z M219.3,80.3
			c-1.2,0-2.2,0.3-3.2,0.8c-0.9,0.5-1.6,1.3-2.2,2.3c-0.5,1-0.8,2.2-0.8,3.5c0,1.3,0.3,2.5,0.8,3.5c0.5,1,1.3,1.8,2.2,2.4
			c0.9,0.5,2,0.8,3.2,0.8c1.2,0,2.2-0.3,3.1-0.8c0.9-0.5,1.7-1.3,2.2-2.3c0.5-1,0.8-2.2,0.8-3.5c0-1.4-0.3-2.5-0.8-3.5
			c-0.5-1-1.2-1.8-2.2-2.3C221.5,80.6,220.4,80.3,219.3,80.3z M263.5,95.6l-4.5-7h-2.4v7h-2.2V78.5h5.6c1.9,0,3.4,0.5,4.4,1.4
			c1,0.9,1.5,2.2,1.5,3.7c0,1.4-0.4,2.5-1.2,3.4c-0.8,0.8-1.9,1.4-3.4,1.6l4.7,7.1H263.5z M256.6,87h3.2c2.5,0,3.8-1.1,3.8-3.3
			s-1.3-3.3-3.8-3.3h-3.2V87z M303.1,91.1c0,0.8-0.2,1.6-0.6,2.3c-0.4,0.7-1,1.3-1.8,1.7c-0.8,0.4-1.8,0.7-2.9,0.7
			c-1.1,0-2.1-0.2-3-0.6c-0.9-0.4-1.6-1-2.1-1.7c-0.5-0.7-0.8-1.6-0.9-2.5h2.4c0,0.5,0.2,1,0.5,1.4c0.3,0.5,0.7,0.8,1.2,1.1
			c0.5,0.3,1.2,0.4,1.9,0.4c1,0,1.7-0.3,2.2-0.8s0.8-1.2,0.8-2c0-0.7-0.2-1.3-0.6-1.7c-0.4-0.4-0.8-0.8-1.3-1
			c-0.5-0.3-1.3-0.5-2.2-0.8c-1.1-0.4-2-0.7-2.6-1c-0.6-0.3-1.2-0.8-1.7-1.4c-0.5-0.6-0.7-1.5-0.7-2.5c0-0.9,0.2-1.7,0.6-2.4
			c0.4-0.7,1.1-1.2,1.8-1.6c0.8-0.4,1.8-0.6,2.8-0.6c1.7,0,3,0.4,4,1.2c1,0.8,1.6,1.8,1.7,3.1h-2.4c-0.1-0.7-0.5-1.3-1-1.8
			c-0.6-0.5-1.3-0.8-2.3-0.8c-0.9,0-1.6,0.2-2.1,0.7c-0.5,0.5-0.8,1.1-0.8,1.9c0,0.7,0.2,1.2,0.5,1.6c0.4,0.4,0.8,0.7,1.3,1
			c0.5,0.2,1.2,0.5,2.1,0.8c1.1,0.4,2,0.7,2.6,1c0.7,0.3,1.3,0.8,1.7,1.5C302.9,89.2,303.1,90,303.1,91.1z"/>
	</g>
</g>
</svg>
