<svg width="1711" height="186" viewBox="0 0 1711 186" fill="none" xmlns="http://www.w3.org/2000/svg">
<path opacity="0.34" d="M49.1313 3.26743L49.019 2.92205H48.6558H2.17383H1.47139L1.70139 3.58577L63.9314 183.164L64.0479 183.5H64.4038H120.538H120.893L121.01 183.164L183.494 3.58636L183.725 2.92205H183.022H136.54H136.177L136.064 3.26743L92.5978 136.933L49.1313 3.26743ZM396.009 3.42205V2.92205H395.509H352.075H351.575V3.42205V183V183.5H352.075H395.509H396.009V183V3.42205ZM611.9 3.26743L611.788 2.92205H611.425H564.943H564.24L564.47 3.58577L626.7 183.164L626.817 183.5H627.173H683.307H683.662L683.779 183.164L746.263 3.58636L746.494 2.92205H745.791H699.309H698.945L698.833 3.26743L655.367 136.933L611.9 3.26743ZM947.609 183.5H947.967L948.083 183.161L959.143 150.734H1025.74L1036.8 183.161L1036.91 183.5H1037.27H1083.5H1084.22L1083.97 182.827L1018.18 4.51898L1018.06 4.19205H1017.71H967.675H967.327L967.206 4.51898L901.42 182.827L901.172 183.5H901.889H947.609ZM1420.68 68.946H1421.3L1421.17 68.341C1416.74 47.7503 1406.95 31.3898 1391.78 19.2889C1376.77 7.18127 1357.78 1.14404 1334.82 1.14404C1317.31 1.14404 1301.89 5.05642 1288.6 12.8966C1275.31 20.5653 1265 31.3881 1257.67 45.3538L1257.67 45.3581C1250.52 59.3233 1246.95 75.2359 1246.95 93.0841C1246.95 110.932 1250.52 126.845 1257.67 140.81L1257.67 140.814C1265 154.78 1275.31 165.687 1288.6 173.525L1288.6 173.527C1301.89 181.197 1317.31 185.024 1334.82 185.024C1357.78 185.024 1376.77 178.987 1391.78 166.879L1391.47 166.49L1391.78 166.879C1406.95 154.61 1416.74 138.251 1421.17 117.828L1421.3 117.222H1420.68H1374.7H1374.37L1374.24 117.53C1370.89 125.57 1365.7 131.925 1358.68 136.61L1358.67 136.613C1351.82 141.29 1343.63 143.638 1334.06 143.638C1321.5 143.638 1311.4 139.124 1303.71 130.1C1296.02 120.9 1292.14 108.579 1292.14 93.0841C1292.14 77.5888 1296.02 65.2673 1303.71 56.0668C1311.4 46.8729 1321.5 42.276 1334.06 42.276C1343.63 42.276 1351.82 44.6244 1358.67 49.301L1358.68 49.3041C1365.7 53.9872 1370.89 60.4255 1374.24 68.635L1374.37 68.946H1374.7H1420.68ZM1303.33 130.422C1311.12 139.566 1321.36 144.138 1334.06 144.138C1343.71 144.138 1352.01 141.767 1358.95 137.026C1366.07 132.285 1371.32 125.85 1374.7 117.722L1303.33 130.422ZM1702.06 75.5581V75.0581H1701.56H1641.35V38.466H1709.18H1709.68V37.966V3.42205V2.92205H1709.18H1597.42H1596.92V3.42205V183V183.5H1597.42H1709.18H1709.68V183V148.202V147.702H1709.18H1641.35V108.824H1701.56H1702.06V108.324V75.5581ZM970.661 116.714L992.565 52.7257L1014.22 116.714H970.661Z" stroke="url(#paint0_linear_74_743)"/>
<defs>
<linearGradient id="paint0_linear_74_743" x1="1709.18" y1="1.64391" x2="176.08" y2="591.624" gradientUnits="userSpaceOnUse">
<stop stop-color="#C5A102"/>
<stop offset="1" stop-color="#C56B02" stop-opacity="0.44"/>
</linearGradient>
</defs>
</svg>
